<svg xmlns="http://www.w3.org/2000/svg" preserveAspectRatio="xMidYMid meet" viewBox="165.8 190.72 418.41 418.56">
  <path d="M360.17 349.697c-12.449-1.25-23.504-4.245-33.508-9.079-13.464-6.506-22.389-14.723-27.413-25.24-2.637-5.52-3.127-7.782-3.158-14.56-.02-4.574.103-6.238.61-8.213.62-2.424.62-2.49 0-3.101-1.041-1.023-30.407-17.87-31.15-17.87-.376 0-11.604 6.3-24.95 14.001-13.345 7.701-24.45 14.002-24.678 14.002-.687 0-18.207-10.22-18.207-10.62 0-.566 6.04-9.511 9.78-14.488 9.938-13.22 22.13-26.017 34.326-36.03 24.32-19.968 52.352-34.177 82.063-41.595 18.774-4.687 35.333-6.523 55.347-6.135 20.127.39 36.348 2.877 55.61 8.53 38.875 11.405 75.667 35.854 101.503 67.45 6.243 7.634 15.968 21.236 15.968 22.334 0 .185-2.315 1.674-5.145 3.308-2.83 1.634-6.81 3.945-8.844 5.134-2.24 1.31-3.97 2.11-4.386 2.03-.608-.12-18.03-10.126-90.77-52.142l-41.5-23.964a43636.145 43636.145 0 01-24.214-13.986c-1.257-.729-2.509-1.24-2.782-1.134-.274.104-10.86 6.171-23.526 13.481a18709.55 18709.55 0 01-26.993 15.56c-2.18 1.247-3.964 2.464-3.964 2.705 0 .342 16.277 9.853 22.675 13.25l1.251.664 3.81-.79c8.157-1.691 11.24-1.958 22.535-1.952 9.152.004 11.26.105 15.187.722 12.578 1.974 22.955 5.336 32.101 10.4 6.563 3.633 10.47 6.625 15.467 11.846 18.617 19.452 14.161 45.169-10.66 61.529-8.112 5.346-18.376 9.57-28.646 11.788-8.436 1.822-11.295 2.108-22.1 2.206-5.659.052-10.897.032-11.64-.041z" fill="#cb2026"/>
  <path d="M363.375 608.8c-35.573-2.493-64.86-11.327-94.132-28.394-18.216-10.62-33.687-23.241-49.862-40.675-10.913-11.762-23.52-30.103-30.757-44.745-1.147-2.32-2.366-4.749-2.71-5.398-1.378-2.604-5.467-12.374-7.358-17.584-7.55-20.8-11.352-40.015-12.578-63.559-.464-8.908-.004-22.586 1.035-30.87.175-1.393.486-3.898.69-5.568 1.624-13.227 6.117-31.079 11.409-45.325 6.674-14.443 6.242-27.793 20.215-19.686l8.68 5.047.169 92.227.168 92.226 2.7 1.55c10.683 6.13 30.268 17.433 31.377 18.109 2.407 1.468 14.822 8.587 15.628 8.962.611.284.851.257 1.092-.123.176-.278.31-8.484.313-19.154l.004-18.666-2.838-3.778c-11.189-14.898-18.164-31.43-20.662-48.972-2.34-20.964 2.972-43.53 21.29-52.33 8.97-4.25 19.24-4.468 30.72-.654 19.251 6.397 38.124 24.191 49.573 46.742 10.875 21.419 13.903 44.544 8.14 62.163-1.083 3.308-3.886 8.916-5.798 11.597-3.078 4.317-7.6 8.208-12.52 10.773l-2.62 1.366v49.542l4.892 2.838c2.69 1.56 6.638 3.858 8.772 5.106 3.138 1.834 21.866 12.624 27.919 16.084l1.434.82v10.072c0 11.007.085 10.556-1.968 10.422a613.01 613.01 0 01-2.418-.166z" fill="#0e9a48"/>
  <path d="M382.434 608.967c-.096-.251-.135-5.08-.086-10.731l.09-10.274 4.048-2.343a330828.511 330828.511 0 00137.993-79.666c2.97-1.722 7.903-4.575 10.965-6.34l5.567-3.209.086-31.477c.048-17.313-.027-31.593-.17-31.734-.238-.238-25.904 14.392-27.125 15.462-.306.268-.728 1.172-.94 2.009-1.29 5.123-7.201 17.81-11.478 24.635-7.64 12.19-18.232 23.304-28.918 30.34-16.599 10.932-34.237 13.554-47.495 7.062-18.948-9.279-26.346-34.52-18.728-63.901 7.123-27.473 26.554-52.964 49.071-64.374 4.96-2.514 9.24-4.115 14.34-5.364 3.539-.868 4.412-.95 9.952-.94 5.455.012 6.407.102 9.348.89 6.042 1.619 11.01 4.405 15.409 8.644 1.178 1.135 2.294 2.064 2.48 2.064.185 0 5.367-2.86 11.516-6.355 6.15-3.495 13.8-7.834 17-9.642l5.82-3.288V341.47c0-24.176.078-29.041.466-29.43.58-.579 17.574-10.379 18-10.379.356 0 6.445 12.379 8.546 17.376 8.27 19.669 13.372 40.115 15.572 62.417.594 6.018.584 30.819-.016 37.113-1.993 20.945-6.704 40.606-14.247 59.463-2.87 7.176-9.653 21.04-13.494 27.583-16.104 27.434-38.847 51.481-65.266 69.006-29.29 19.43-62.757 31.095-97.674 34.044-8.72.737-10.447.786-10.632.304z" fill="#35469d"/>
</svg>