<svg xmlns="http://www.w3.org/2000/svg" width="71.967" height="113.771">
  <rect width="100%" height="100%" fill="none"/>
  <g class="currentLayer">
    <g stroke-width="4.333" fill="#fff">
      <path d="M49.91 113.614c-.718-.194-1.095-.754-1.003-1.49.045-.363.282-.689.679-.934l.21-.13-.124-.2a.955.955 0 01-.124-.476c0-.228.039-.323.215-.534l.215-.258-.25-.27c-.346-.376-.424-.597-.423-1.194.002-.596.11-.88.465-1.22.422-.404.576-.43 2.327-.38l1.542.042v.522l-.366.042c-.202.023-.38.064-.397.091-.016.027.011.165.061.307.105.296.119.844.03 1.163-.08.29-.44.702-.754.863-.186.096-.415.14-.864.167-.672.041-.82.103-.988.414-.105.196-.105.203.025.333.162.162.542.223 1.421.23.803.006 1.044.072 1.377.38.217.199.278.305.335.58.197.952-.295 1.68-1.312 1.942-.445.114-1.886.12-2.296.01zm2.172-.738c.535-.23.78-.644.616-1.038-.142-.34-.385-.413-1.41-.421-.798-.007-.872.003-1.114.14-.35.2-.544.582-.445.88.15.459.51.6 1.437.567.455-.016.75-.057.916-.128zm-.331-3.89c.586-.33.61-1.296.042-1.72-.257-.19-.821-.212-1.17-.044-.685.332-.697 1.433-.018 1.77.347.171.835.17 1.146-.006zm-34.993 2.504c-.282-.075-.763-.441-1.016-.773-.314-.411-.416-.834-.416-1.72 0-1.019.104-1.344.596-1.87.48-.514.794-.634 1.655-.634.787 0 1.098.1 1.524.49.613.56.81 1.145.758 2.265-.04.898-.142 1.178-.607 1.675-.488.522-.798.64-1.654.631-.343-.003-.72-.032-.84-.064zm1.601-.824c.904-.65.906-2.648.003-3.283-.207-.145-.34-.187-.65-.207-.684-.044-1.119.206-1.386.797-.128.283-.145.41-.142 1.054.003.618.024.775.134 1.007.178.374.304.515.626.701.239.138.332.157.713.14.376-.016.475-.045.702-.209zm7.256.781a1.217 1.217 0 01-.61-.857c-.034-.18-.062-.992-.062-1.804 0-1.066-.02-1.495-.074-1.548-.04-.04-.191-.073-.336-.073-.26 0-.262-.003-.262-.218 0-.204.02-.225.338-.366.185-.082.349-.184.363-.226.014-.041.083-.275.153-.518l.128-.443h.544v.507c0 .312.028.535.074.58.047.047.294.073.702.073h.629v.611h-.63c-.407 0-.654.025-.701.073-.053.053-.074.487-.073 1.572 0 1.378.01 1.515.119 1.694.206.338.373.407.89.368l.456-.035v.299c0 .388-.073.425-.837.425-.468 0-.647-.025-.811-.114zm3.72.043c-.282-.075-.762-.441-1.016-.773-.313-.411-.415-.834-.415-1.72 0-1.019.104-1.344.596-1.87.48-.514.793-.634 1.654-.634.788 0 1.098.1 1.525.49.613.56.809 1.145.758 2.265-.04.898-.142 1.178-.607 1.675-.488.522-.799.64-1.654.631-.343-.003-.721-.032-.84-.064zm1.602-.818c.903-.635.905-2.654.002-3.289-.206-.145-.34-.187-.65-.207-.684-.044-1.118.206-1.385.797-.128.283-.145.41-.142 1.054.002.618.023.775.134 1.007.178.374.303.515.626.701.239.138.332.157.713.14.373-.016.479-.046.702-.203zm14.481.761c-.618-.237-1.121-.83-1.282-1.512-.177-.751-.058-1.895.25-2.422.207-.353.692-.784 1.024-.911.226-.087.418-.104.944-.086.59.02.691.04.952.193.37.218.748.694.867 1.095.053.176.093.547.093.851v.538h-1.61c-1.857 0-1.808-.014-1.688.483.147.613.595 1.058 1.147 1.141.403.06 1.092-.01 1.504-.154a3.36 3.36 0 01.412-.126c.086 0 .06.71-.028.784-.321.266-2.006.349-2.585.126zm1.947-2.988c.077-.121-.032-.527-.213-.792-.223-.327-.433-.447-.833-.476-.501-.036-.902.178-1.135.606-.219.402-.282.634-.195.72.047.047.422.063 1.193.052.927-.014 1.135-.033 1.183-.11zm12.096 2.988c-.619-.237-1.122-.83-1.282-1.512-.177-.751-.058-1.895.25-2.422.207-.353.692-.784 1.024-.911.226-.087.418-.104.944-.086.59.02.691.04.952.193.37.218.748.694.867 1.095.053.176.093.547.093.851v.538h-1.61c-1.857 0-1.808-.014-1.688.483.147.613.595 1.058 1.147 1.141.403.06 1.092-.01 1.504-.154a3.36 3.36 0 01.412-.126c.086 0 .06.71-.028.784-.321.266-2.006.349-2.585.126zm1.947-2.988c.077-.121-.032-.527-.213-.792-.223-.327-.433-.447-.833-.476-.501-.036-.902.178-1.135.606-.219.402-.282.634-.195.72.046.047.422.063 1.193.052.927-.014 1.135-.033 1.183-.11zm-51.363-.247v-3.302l1.42.024c1.608.027 1.797.067 2.265.48.415.365.552.701.555 1.367.004.786-.098 1.086-.513 1.502-.495.497-.844.617-1.896.652-.453.015-.858.055-.9.09-.057.045-.076.378-.076 1.275v1.214h-.855zm1.79.008c.987-.089 1.41-.37 1.561-1.041.148-.657-.203-1.245-.85-1.426-.48-.134-1.441-.195-1.556-.1-.074.062-.09.29-.09 1.277 0 1.227.022 1.35.24 1.345.053 0 .365-.026.694-.055zm9.261.82v-2.472h.733v.26c.002.452.077.481.41.159.43-.418.59-.48 1.242-.48h.56l-.044.351c-.024.193-.051.36-.06.37-.01.01-.237.023-.503.03-.418.01-.521.036-.743.183-.28.186-.584.614-.68.957-.033.118-.06.868-.06 1.665v1.45h-.855v-2.472zm14.287 2.387c0-.085 2.383-6.16 2.507-6.393.056-.103.118-.118.441-.102l.377.018 1.268 3.232c.698 1.778 1.269 3.255 1.269 3.282 0 .084-.842.059-.896-.027a18.85 18.85 0 01-.395-.948c-.19-.48-.38-.913-.42-.962-.061-.073-.291-.09-1.243-.088-.642 0-1.197.02-1.234.045-.036.025-.224.457-.419.961l-.383.992c-.045.115-.872.106-.872-.01zm3.823-2.748c.032-.084-.792-2.393-.891-2.498-.027-.028-.097.095-.156.275-.06.179-.267.75-.462 1.267-.195.518-.34.964-.323.992.017.028.429.051.915.051.708 0 .89-.017.917-.087zm2.771-.676v-3.51h.855v7.02h-.855zm12.578 1.038v-2.473h.733v.26c.002.452.077.481.41.159.43-.418.59-.48 1.242-.48h.56l-.044.351c-.024.193-.051.36-.06.37-.01.01-.237.023-.503.03-.418.01-.521.036-.743.183-.28.186-.584.614-.68.957-.033.118-.06.868-.06 1.665v1.45h-.855v-2.472zM36.97 99.929v-3.571h.366c.359 0 .366.003.367.167.002.315.087.36.314.169.368-.31.638-.395 1.266-.396.795-.002 1 .072 1.452.52.513.508.658.953.656 2.012-.003 1.065-.147 1.508-.656 2.013-.448.445-.657.521-1.428.521-.63 0-.87-.064-1.197-.319-.128-.1-.247-.168-.264-.15-.017.017-.028.61-.024 1.318l.007 1.288h-.86zm2.703.681c1.118-.47 1.196-2.93.11-3.5-.489-.258-1.223-.149-1.574.233-.239.26-.34.6-.37 1.244-.05 1.061.187 1.707.725 1.973.31.154.81.176 1.11.05zm-20.47.66c-.461-.13-.772-.324-1.149-.723-.617-.653-.835-1.398-.792-2.712.022-.65.058-.924.164-1.233.272-.799.93-1.498 1.675-1.78.337-.129.477-.143 1.353-.143.793 0 1.05.022 1.365.118.213.065.402.156.42.202.037.096-.148.534-.268.634-.062.05-.21.026-.597-.1-.446-.145-.588-.164-1.058-.142-.433.021-.613.06-.884.193-.678.332-1.074.91-1.256 1.831-.176.896.07 1.963.588 2.553.104.12.362.31.573.422.338.18.452.208.942.23.374.017.726-.009 1.067-.078.28-.057.538-.108.572-.114.035-.006.07.155.08.368l.018.378-.231.071c-.382.119-2.184.136-2.581.025zm4.394-.046c-.387-.204-.599-.499-.677-.941-.1-.568.003-.968.33-1.283.14-.136.348-.294.46-.35.306-.154 1.054-.278 1.683-.278.356 0 .589-.026.635-.073.118-.117.085-.55-.064-.845-.255-.506-.848-.623-1.664-.328-.618.224-.636.222-.761-.096-.06-.151-.096-.309-.08-.35.017-.043.248-.146.515-.23.393-.124.61-.153 1.139-.153.359 0 .763.03.897.068.318.088.728.498.817.817.043.155.068.951.068 2.183v1.938h-.302c-.302 0-.304 0-.369-.244-.036-.134-.095-.244-.13-.244s-.177.096-.314.214c-.323.276-.55.334-1.302.335-.525 0-.655-.02-.88-.14zm1.78-.702c.229-.12.376-.252.496-.446.198-.32.288-.856.168-1-.153-.185-1.31-.086-1.805.153-.607.294-.647 1.08-.07 1.364.32.158.83.128 1.21-.071zm18.156.75c-.312-.11-.733-.553-.818-.86-.041-.148-.067-.965-.067-2.146v-1.908h.787l.019 1.816c.017 1.688.027 1.831.14 2.024.204.345.41.457.888.484.367.021.472.002.761-.14.65-.318.763-.725.763-2.753v-1.431h.794v4.945h-.33c-.34 0-.403-.048-.403-.307 0-.198-.127-.201-.326-.008-.106.103-.314.23-.46.282-.345.122-1.407.123-1.748.002zm5.018.028c-.437-.108-.47-.146-.47-.549 0-.419.008-.422.49-.23.271.11.463.135 1.007.138.766.004.993-.082 1.162-.437.087-.184.086-.22-.007-.416-.084-.178-.196-.26-.659-.482-.307-.147-.75-.344-.985-.439-.807-.325-1.145-.824-1.039-1.533.059-.39.479-.837.906-.964.647-.192 2.278-.065 2.493.194.058.07.046.144-.059.36-.151.31-.189.318-.734.147-.757-.237-1.454-.132-1.743.262-.122.166-.122.174-.013.377.13.242.502.452 1.405.797.495.189.665.289.924.543.267.262.325.358.36.602.098.683-.159 1.215-.728 1.508-.28.144-.37.157-1.19.168-.488.006-.992-.015-1.12-.046zm-20.13-2.47v-2.472h.72l.04.213c.022.118.068.214.102.214.034 0 .165-.083.29-.184.302-.242.541-.305 1.168-.304.677 0 .923.075 1.238.374.163.155.284.228.328.196.038-.029.169-.13.29-.227.334-.265.612-.338 1.29-.34.681 0 .973.091 1.263.401.365.39.38.483.404 2.633l.022 1.97h-.865v-1.79c0-1.732-.005-1.796-.138-2.06-.408-.81-1.765-.576-2.069.356-.047.145-.082.812-.098 1.86l-.024 1.633h-.779l-.018-1.816c-.018-1.704-.027-1.83-.144-2.03-.197-.336-.474-.489-.882-.489-.522 0-.837.189-1.069.641l-.183.357-.019 1.669-.019 1.668h-.847zM.053 91.255c-.02-.052-.011-.121.02-.152.036-.036 13.784-.052 35.955-.042 35.853.015 35.898.015 35.898.137 0 .122-.045.122-35.918.138-32.573.014-35.922.006-35.955-.08zm22.525-3.54c-.812-.405-1.165-1.243-1.101-2.615.043-.917.17-1.26.657-1.757.463-.474.634-.54 1.405-.54.638 0 .918.074 1.19.313.116.102.24.167.274.146.04-.024.063-.487.063-1.256v-1.218h.793v7.022h-.333c-.332 0-.333-.001-.373-.215-.022-.118-.066-.23-.097-.249-.03-.02-.163.062-.294.18-.303.274-.564.344-1.287.344-.504 0-.626-.02-.897-.155zm1.76-.658c.56-.295.819-1.115.68-2.15-.096-.714-.294-1.073-.706-1.279-.54-.269-1.175-.177-1.548.223-.262.28-.403.715-.433 1.337-.046.955.218 1.627.74 1.886.361.178.912.17 1.268-.017zm4.266.743c-.282-.075-.763-.441-1.017-.773-.313-.411-.415-.834-.415-1.72 0-1.018.104-1.344.596-1.87.48-.514.794-.634 1.655-.634.787 0 1.098.1 1.524.49.613.56.809 1.145.758 2.265-.04.898-.142 1.178-.607 1.675-.488.522-.798.64-1.654.631-.343-.003-.721-.032-.84-.064zm1.601-.818c.903-.635.905-2.654.003-3.288-.207-.146-.34-.188-.65-.208-.684-.044-1.12.207-1.386.797-.128.283-.145.41-.142 1.054.003.618.023.775.134 1.007.178.374.304.515.626.702.239.138.332.156.714.14.372-.017.478-.047.701-.204zm5.301.78l-.397-.105-.018-.42-.018-.419.17.03c.095.018.389.09.655.16.325.088.665.13 1.042.13.489 0 .6-.021.89-.168.418-.211.607-.48.607-.864 0-.558-.28-.808-1.396-1.252-.878-.35-1.156-.514-1.467-.867-.296-.337-.372-.575-.373-1.17 0-.713.252-1.133.885-1.47.294-.156.342-.162 1.282-.162 1.035 0 1.644.11 1.721.312.037.097-.058.475-.16.632-.05.077-.12.07-.504-.056-.592-.193-1.361-.238-1.72-.1-.64.244-.856.892-.477 1.426.153.214.615.465 1.476.803.728.285 1.145.564 1.384.926.137.206.17.334.191.748.036.684-.051.964-.422 1.356-.492.52-.744.6-1.946.62-.802.013-1.089-.005-1.405-.09zm5.831.017c-.312-.11-.733-.553-.818-.86-.041-.148-.067-.965-.067-2.147v-1.908h.787l.018 1.817c.018 1.687.028 1.83.141 2.023.204.346.41.458.888.485.367.02.472.002.761-.14.65-.318.763-.725.763-2.753v-1.432h.794v4.946h-.33c-.34 0-.403-.048-.403-.307 0-.198-.127-.201-.326-.008-.106.103-.314.23-.46.282-.345.121-1.407.123-1.748.002zm4.793-3.48v-3.51h.855v7.02h-.855zm-25.891-7c-.282-.076-.763-.442-1.016-.774-.313-.41-.416-.834-.416-1.72 0-1.018.104-1.344.596-1.87.481-.514.794-.634 1.655-.634.787 0 1.098.1 1.524.49.614.56.81 1.145.758 2.265-.04.898-.142 1.178-.607 1.675-.488.522-.798.64-1.654.632-.343-.004-.72-.033-.84-.065zm1.601-.819c.904-.634.905-2.654.003-3.288-.207-.145-.34-.188-.65-.208-.684-.043-1.119.207-1.386.798-.127.282-.145.409-.142 1.053.003.619.024.776.134 1.008.178.374.304.514.626.7.24.139.332.157.714.14.372-.015.478-.046.701-.203zm7.072.805c-.504-.145-.76-.303-1.194-.737-.715-.715-.913-1.338-.864-2.72.023-.638.06-.911.165-1.208.276-.785.995-1.504 1.785-1.786.591-.212 1.982-.243 2.763-.062.314.072.604.17.643.218.11.131-.203.79-.352.741-.98-.322-1.15-.354-1.755-.333-.529.018-.664.046-1.01.21-.554.26-.816.51-1.066 1.02a3.123 3.123 0 00-.244 2.163c.192.812.568 1.303 1.246 1.624.393.187.422.19 1.29.19.748 0 .914-.016 1.053-.107l.166-.109v-.871c0-.597-.024-.895-.074-.945-.048-.048-.3-.074-.732-.074h-.66v-.671h2.261l-.016 1.633-.016 1.633-.428.115c-.553.148-2.534.2-2.96.076zm8.975-.056c-.388-.205-.6-.5-.678-.941-.1-.568.003-.968.33-1.283.141-.136.348-.294.46-.35.306-.154 1.054-.278 1.683-.278.356 0 .59-.027.636-.073.117-.118.084-.55-.065-.845-.255-.506-.848-.623-1.663-.328-.62.224-.637.222-.762-.096-.06-.151-.095-.309-.08-.35.017-.043.248-.146.515-.23.393-.124.61-.154 1.139-.153.359 0 .763.03.897.068.319.088.729.498.817.817.043.155.068.95.068 2.182v1.939h-.302c-.302 0-.303 0-.369-.244-.036-.135-.095-.244-.13-.244s-.177.096-.314.213c-.323.277-.55.335-1.302.336-.525 0-.655-.02-.88-.14zm1.778-.702c.23-.12.378-.253.497-.446.199-.321.289-.856.169-1-.153-.185-1.312-.087-1.806.153-.607.293-.647 1.08-.07 1.364.32.158.83.128 1.21-.071zm9.534.686c-.812-.405-1.166-1.243-1.102-2.615.043-.917.171-1.26.657-1.757.464-.473.635-.539 1.406-.539.638 0 .918.074 1.19.313.116.101.239.167.273.145.04-.024.063-.487.063-1.256v-1.217h.794v7.021h-.333c-.333 0-.333 0-.373-.214-.022-.118-.066-.23-.097-.25-.031-.019-.163.062-.294.18-.304.274-.565.344-1.288.345-.503 0-.626-.021-.896-.156zm1.65-.601c.242-.106.5-.349.623-.586.289-.558.253-1.856-.067-2.444-.382-.702-1.467-.826-2.02-.233-.263.281-.403.715-.433 1.338-.047.954.218 1.626.74 1.885.301.149.862.168 1.157.04zm4.278.63c-.619-.238-1.122-.831-1.282-1.512-.177-.752-.058-1.895.25-2.422.207-.354.692-.785 1.024-.912.226-.086.418-.104.944-.086.59.02.691.04.952.194.37.217.748.694.867 1.095.053.176.093.547.093.85v.539h-1.61c-1.857 0-1.808-.014-1.688.483.147.612.595 1.058 1.147 1.14.403.061 1.092-.01 1.504-.154a3.36 3.36 0 01.412-.126c.086 0 .06.71-.028.784-.321.267-2.006.35-2.585.127zm1.947-2.988c.077-.122-.032-.527-.213-.793-.223-.327-.433-.447-.833-.476-.501-.036-.902.178-1.135.607-.219.402-.282.633-.195.72.046.046.422.063 1.193.051.927-.013 1.135-.033 1.183-.11zm-45.99-.248v-3.302l1.48.02c1.353.019 1.505.032 1.759.149.388.18.697.468.861.805.202.415.203 1.32 0 1.734a2.01 2.01 0 01-.84.828c-.148.07-.206.134-.188.205.015.056.373.68.797 1.384.423.704.787 1.327.808 1.383.035.09-.016.1-.472.083l-.511-.018-.733-1.258c-.403-.692-.77-1.303-.816-1.358-.066-.08-.197-.1-.614-.1-.33 0-.557.027-.603.073-.053.052-.073.443-.073 1.373v1.301h-.855v-3.302zm2.067-.177c.886-.102 1.311-.497 1.311-1.218 0-.553-.275-.93-.782-1.072-.455-.128-1.534-.188-1.65-.093-.075.063-.091.272-.091 1.186 0 .782.021 1.132.073 1.184.088.088.453.092 1.139.013zm3.55 1.006v-2.473h.855v4.946H16.7zm17.035 0v-2.473h.732l.001.26c.002.453.076.482.41.16.43-.419.59-.48 1.242-.48h.56l-.044.35c-.024.194-.051.36-.061.37-.01.01-.236.024-.503.03-.417.01-.52.036-.743.184-.28.185-.584.613-.679.956-.033.119-.06.868-.06 1.666v1.45h-.856v-2.473zm8.914 0v-2.473h.717l.039.245c.047.292.137.308.372.062.273-.285.658-.382 1.422-.358.767.024 1.03.128 1.337.527.29.378.326.677.326 2.672v1.798h-.786l-.02-1.786c-.018-1.75-.021-1.791-.163-2.038-.203-.355-.508-.511-.993-.51-.635.003-1.003.234-1.262.793-.082.176-.103.505-.121 1.877l-.022 1.664h-.846zm-25.896-3.428c-.046-.056-.084-.23-.084-.388 0-.157.038-.332.084-.387.12-.145.627-.138.762.01.142.158.135.632-.01.765-.152.136-.639.136-.752 0zm26.51-6.463a54.403 54.403 0 00-1.053-1.649c-.1-.127-.171-.152-.439-.152-.175 0-.352.033-.392.073-.053.053-.073.498-.073 1.618v1.545H39.413V57.83l1.175.002c1.551.002 2.603.083 3.108.24.8.247 1.358.789 1.551 1.503.142.525.102 1.468-.079 1.87-.159.354-.598.833-.999 1.09-.164.106-.299.206-.299.224 0 .032.714 1.101 1.697 2.54.317.464.6.821.628.793.028-.028.669-1.814 1.425-3.97a386.296 386.296 0 011.465-4.135l.09-.218h2.249l.098.26c.239.635 2.91 8.255 2.91 8.3 0 .029-.458.044-1.019.035l-1.02-.017-.288-.94c-.16-.517-.326-.963-.37-.991-.044-.028-.702-.051-1.462-.052-1.092 0-1.396.017-1.45.082-.038.046-.193.488-.343.982-.15.494-.29.924-.309.955-.02.032-.873.056-2.005.056h-1.97l-.933-1.496zm8.026-2.183c.037-.104-.908-3.116-.986-3.142-.073-.024-1.02 3.074-.967 3.16.058.093 1.92.076 1.953-.018zm-9.231-1.142c.69-.073 1.03-.232 1.233-.578.314-.537.153-1.132-.387-1.43-.302-.166-1.384-.295-1.521-.18-.107.088-.11 2.067-.004 2.173.04.04.088.073.107.072.018 0 .276-.026.572-.057zm-31.403.486v-4.274h4.946v1.526h-1.484c-1.072 0-1.504.02-1.557.074-.102.102-.102 1.949 0 2.051.053.053.458.073 1.435.073h1.362v1.466h-1.362c-.977 0-1.382.02-1.435.073-.053.053-.073.512-.073 1.68v1.605h-1.832zm6.594 0v-4.274h4.946v1.526h-1.453c-1.049 0-1.474.02-1.527.074-.05.05-.073.332-.073.873 0 .54.024.823.073.873.053.053.458.073 1.435.073h1.362v1.466H20.65c-.977 0-1.382.02-1.435.073-.102.102-.102 1.888 0 1.99.053.053.478.074 1.527.074h1.453v1.526h-4.946zm6.656 0v-4.274l1.266.001c2.27.003 3.102.123 3.954.57.536.28 1.182.95 1.457 1.508.34.691.42 1.184.39 2.378-.024.877-.048 1.07-.187 1.496-.442 1.352-1.468 2.203-3.024 2.507-.324.064-.92.088-2.152.088h-1.704v-4.274zm3.565 2.56c.73-.224 1.18-.678 1.448-1.461.18-.527.197-1.618.032-2.168-.325-1.085-.919-1.52-2.237-1.635-.576-.05-.746-.047-.821.015-.083.069-.095.407-.095 2.684 0 1.995.018 2.624.076 2.682.104.104 1.12.03 1.597-.117zm5.227-2.56v-4.274h4.945v1.526H36.19c-1.049 0-1.473.02-1.526.074-.05.05-.074.332-.074.873 0 .54.024.823.074.873.052.053.457.073 1.435.073h1.361v1.466h-1.361c-.978 0-1.383.02-1.435.073-.103.102-.103 1.888 0 1.99.053.053.477.074 1.526.074h1.453v1.526h-4.945zm22.774 0v-4.274h1.892v3.437c0 2.593.018 3.456.074 3.511.053.054.518.074 1.71.074h1.636v1.526H55.47zm-36.495-6.198a6.05 6.05 0 01-.733-.226l-.352-.14-.017-.9c-.01-.553.006-.9.042-.9.033 0 .3.096.594.215 1.495.602 2.65.609 3.012.017.156-.257.156-.434-.003-.715-.157-.28-.524-.532-1.302-.894-1.183-.551-1.726-.997-2.04-1.673-.282-.61-.243-1.678.083-2.24.184-.317.675-.763 1.018-.924.609-.285 1.917-.363 2.795-.165.48.108 1.404.438 1.404.502 0 .093-.511 1.278-.59 1.367-.081.092-.138.082-.71-.121-.55-.196-.692-.221-1.214-.223-.506 0-.615.018-.763.128-.27.2-.406.478-.36.728.066.346.391.605 1.367 1.086 1.03.507 1.348.712 1.702 1.097.47.51.536.702.537 1.57 0 .652-.018.804-.13 1.045-.256.554-.827 1.053-1.473 1.288-.294.107-.52.13-1.419.146-.763.013-1.177-.006-1.448-.068zm25.921-.002a4.064 4.064 0 01-.638-.22c-.384-.181-1.056-.822-1.265-1.207-.32-.587-.343-.862-.344-4.142l-.001-3.007h1.832v2.519c0 2.871.04 3.387.287 3.848.28.518.68.715 1.458.716.36 0 .496-.031.8-.183.297-.149.395-.238.522-.473.27-.504.29-.765.29-3.682v-2.745h1.832v3.099c-.001 3.243-.011 3.39-.278 3.953-.161.34-.82 1.016-1.179 1.211-.538.293-1.141.408-2.109.402-.504-.003-1.004-.04-1.207-.089zm16.072-.028a5.083 5.083 0 01-.703-.243c-.436-.211-.962-.687-1.284-1.162-.544-.801-.736-1.682-.686-3.143.053-1.514.331-2.279 1.11-3.053.747-.742 1.519-1.012 2.903-1.015 1.385-.004 2.153.24 2.881.912.634.586.99 1.293 1.15 2.279.115.721.05 2.342-.12 2.922-.356 1.215-1.135 2.057-2.262 2.445-.338.116-.556.14-1.466.158-.923.02-1.13.006-1.523-.1zm2.131-1.58c.44-.168.75-.44.968-.85.268-.502.376-1.024.376-1.813 0-.79-.108-1.311-.377-1.815-.368-.69-.946-.992-1.82-.95-.403.02-.586.061-.826.184-.846.435-1.231 1.356-1.17 2.795.06 1.39.517 2.199 1.397 2.473.397.124 1.092.112 1.452-.025zM4.794 51.602V47.33H6.687v8.548H4.794zm3.908 0V47.33h2.317l.108.165c.06.09.85 1.442 1.757 3.002.906 1.56 1.676 2.846 1.71 2.858.04.013.054-1.005.04-3.002l-.02-3.023h1.72v8.548h-2.428l-1.732-3.02c-.953-1.66-1.76-3.02-1.793-3.022-.04-.002-.055 1.031-.042 3.02l.02 3.022H8.702zm17.767.867c0-2.568-.018-3.425-.073-3.48-.052-.051-.397-.073-1.16-.073h-1.087v-1.588H30.682v1.588h-1.087c-.764 0-1.109.022-1.16.073-.055.055-.073.912-.073 3.48v3.407H26.469zm5.434-.867V47.33H33.796v8.548H31.903zm5.373.867c0-2.568-.018-3.425-.073-3.48-.052-.051-.397-.073-1.16-.073h-1.087v-1.588H41.489v1.588h-1.087c-.764 0-1.109.022-1.16.073-.055.055-.073.912-.073 3.48v3.407H37.276zm15.936 0c0-2.568-.018-3.425-.074-3.48-.051-.051-.396-.073-1.16-.073h-1.087v-1.588H57.424v1.588h-1.086c-.764 0-1.109.022-1.16.073-.056.055-.074.912-.074 3.48v3.407h-1.892zm-32.03-11.33l-.208-.21V36.94c0-4.428-.023-4.183.403-4.361.301-.126 7.685-.126 7.986 0 .426.178.403-.066.403 4.354v3.984l-.178.2-.178.2-4.01.016-4.008.016zm10.502 0l-.208-.21V36.94c0-4.428-.023-4.183.402-4.361.302-.126 7.685-.126 7.987 0 .425.178.403-.066.403 4.354v3.984l-.178.2-.179.2-4.009.016-4.009.016zm-10.32-10.355a.819.819 0 01-.26-.219c-.13-.165-.13-.172-.13-4.156v-3.99l.178-.2.178-.199 3.867-.018c2.64-.013 3.938.002 4.093.047a.807.807 0 01.35.225c.124.157.126.218.126 4.15v3.99l-.178.2-.178.199-3.959.012c-2.177.006-4.016-.012-4.087-.041zm10.502 0a.819.819 0 01-.26-.219c-.13-.165-.13-.173-.13-4.143 0-4.412-.023-4.17.402-4.347.302-.126 7.685-.126 7.987 0 .425.178.403-.066.403 4.354v3.985l-.178.2-.179.199-3.958.012c-2.177.006-4.017-.012-4.087-.041zm10.501 0a.819.819 0 01-.26-.219c-.13-.165-.13-.173-.13-4.143 0-4.412-.022-4.17.403-4.347.302-.126 7.685-.126 7.986 0 .426.178.403-.066.403 4.354v3.985l-.178.2-.178.199-3.958.012c-2.177.006-4.017-.012-4.088-.041zM21.364 20.283a.819.819 0 01-.26-.218c-.13-.166-.13-.173-.13-4.156v-3.99l.178-.2.178-.2 3.927-.016c2.869-.012 3.974.003 4.098.054a.86.86 0 01.29.223c.117.149.121.268.121 4.143v3.99l-.178.2-.178.199-3.959.012c-2.177.007-4.016-.012-4.087-.04zm10.502 0a.819.819 0 01-.26-.218c-.13-.166-.13-.173-.13-4.156v-3.99l.178-.2.178-.2 3.927-.016c2.869-.012 3.973.003 4.098.054a.86.86 0 01.29.223c.117.149.12.268.12 4.143v3.99l-.177.2-.179.199-3.958.012c-2.177.007-4.017-.012-4.087-.04zM42.367 9.782a.819.819 0 01-.26-.22c-.13-.165-.13-.172-.13-4.155v-3.99l.178-.2.179-.199h8.079l.178.2.178.199V9.41l-.178.2-.178.2-3.958.011c-2.177.007-4.017-.011-4.088-.04zm-18.123-.07c-1.948-.263-3.564-1.74-4.043-3.695-.149-.607-.135-1.742.029-2.352A4.95 4.95 0 0123.099.408c.919-.374 2.31-.44 3.217-.152 1.608.509 2.82 1.74 3.279 3.326.119.414.14.625.137 1.374-.003.835-.015.918-.202 1.466-.666 1.943-2.296 3.188-4.343 3.316a5.85 5.85 0 01-.943-.025zm7.55-.054a.708.708 0 01-.259-.28c-.095-.249-.077-7.893.019-8.085a.743.743 0 01.289-.26c.197-.1.493-.107 4.131-.092l3.92.016.187.18.187.179V9.39l-.187.18-.188.18-3.95.015c-3.862.015-3.953.013-4.148-.107z"/>
      <path d="M49.964 113.554c-.68-.19-.993-.583-.99-1.236.003-.47.14-.719.546-.991.356-.239.38-.285.241-.44-.243-.267-.168-.836.147-1.122.173-.157.162-.248-.05-.399-.623-.444-.668-1.785-.081-2.4.088-.092.313-.225.5-.295.323-.12.41-.125 1.82-.083l1.48.044v.4l-.397.043c-.219.024-.41.063-.425.087-.015.025.03.193.099.375.18.469.136 1.047-.11 1.445-.278.452-.677.638-1.465.682-.587.032-.635.045-.813.216-.222.212-.283.398-.189.575.117.219.291.258 1.336.306.864.039 1.057.066 1.272.177.492.254.695.743.575 1.39-.107.58-.377.872-1.05 1.14-.273.107-.483.132-1.244.148-.624.013-1.007-.007-1.202-.062zm2.27-.683c.72-.39.797-1.085.156-1.416-.276-.143-1.945-.144-2.209-.002-.767.413-.717 1.318.087 1.577.091.03.495.046.898.037.68-.015.757-.029 1.067-.196zm-.42-3.83a1.29 1.29 0 00.349-.412c.244-.473.103-1.117-.314-1.428-.143-.106-.26-.128-.683-.128-.548 0-.71.069-.964.409-.242.323-.211 1.012.059 1.332.217.259.468.355.942.36.322.004.445-.022.61-.132zm-35.029 2.372c-.588-.184-1.084-.704-1.282-1.346-.135-.437-.178-1.295-.088-1.756.233-1.188.936-1.757 2.17-1.757.741 0 1.16.146 1.555.543.515.516.709 1.148.66 2.152-.04.825-.194 1.238-.62 1.672-.427.435-.825.58-1.582.574-.31-.002-.675-.039-.813-.082zm1.397-.546c.255-.107.681-.572.768-.838.21-.644.194-1.56-.036-2.076-.142-.32-.455-.642-.74-.763-.318-.133-.935-.111-1.268.046-.588.276-.848.904-.804 1.939.023.54.054.696.185.95.17.331.399.572.688.724.23.12.938.132 1.207.018zm7.428.491a.914.914 0 01-.422-.44c-.152-.296-.154-.323-.174-1.981-.013-1.04-.045-1.71-.084-1.757-.035-.042-.184-.077-.33-.077-.247 0-.268-.012-.268-.156 0-.13.055-.18.333-.303l.334-.147.13-.445c.07-.244.14-.479.152-.52.014-.043.12-.077.24-.077h.215v.507c0 .312.028.535.074.58.047.047.294.073.702.073h.629v.488h-.63c-.407 0-.654.026-.701.074-.054.053-.074.5-.074 1.633 0 1.439.01 1.575.12 1.755.201.33.368.401.887.375l.459-.023v.254c0 .307-.048.327-.8.328-.432 0-.572-.024-.792-.141zm3.753.058c-.594-.193-1.085-.709-1.282-1.349a4.583 4.583 0 01-.13-.84c-.076-1.198.312-2.063 1.109-2.476.266-.138.403-.164.98-.184.844-.03 1.247.097 1.678.53.515.516.708 1.148.66 2.152-.051 1.034-.404 1.687-1.109 2.052-.274.142-.396.164-.984.18-.44.01-.758-.012-.922-.065zm1.397-.549c.108-.045.312-.208.453-.361.333-.362.462-.796.46-1.537-.004-.734-.153-1.14-.559-1.52-.335-.313-.537-.373-1.134-.334-.526.033-.843.25-1.099.75-.177.346-.184.39-.183 1.158 0 .744.011.818.162 1.103.176.332.406.572.692.723.23.12.939.132 1.208.018zm14.81.551c-.992-.371-1.457-1.132-1.455-2.379.002-1.147.44-1.977 1.227-2.33.346-.156.42-.166.993-.143.69.028.96.128 1.314.487.376.38.511.74.543 1.44l.029.625h-1.619c-1.89 0-1.823-.02-1.706.54.087.414.32.765.671 1.013.233.164.317.184.826.207.41.018.675-.005.96-.08.728-.196.669-.208.669.136 0 .299-.004.304-.26.41-.351.147-1.863.197-2.192.074zm1.842-2.88c.148-.179-.07-.895-.345-1.137-.49-.43-1.343-.392-1.77.078-.286.314-.505.92-.384 1.065.108.13 2.39.125 2.499-.006zm12.064 2.814c-.491-.207-.755-.435-.987-.853-.331-.6-.426-1.494-.24-2.283.18-.762.54-1.24 1.136-1.507.346-.156.42-.166.993-.143.69.028.957.127 1.316.487.353.354.515.79.543 1.47l.025.595h-1.617c-1.889 0-1.823-.02-1.706.54.087.414.32.765.671 1.013.233.164.317.184.826.207.409.018.675-.005.96-.08.729-.196.669-.208.669.14v.306l-.29.105c-.203.074-.537.113-1.115.13-.77.023-.847.015-1.184-.127zm1.978-2.814c.149-.179-.068-.895-.344-1.137-.49-.43-1.343-.392-1.77.078-.286.314-.505.92-.384 1.065.108.13 2.39.125 2.498-.006zm-51.348-.335v-3.236h1.208c1.337 0 1.735.064 2.21.354.919.564.964 2.366.076 3.044-.464.353-.863.464-1.785.495-.453.015-.858.055-.9.09-.057.045-.077.378-.077 1.275v1.213h-.732zm2.44-.041c.47-.13.816-.483.911-.93.168-.785-.223-1.424-.97-1.587-.51-.111-1.454-.153-1.556-.069-.077.064-.093.286-.093 1.34 0 .928.02 1.282.077 1.339.098.1 1.155.039 1.632-.093zm8.611.865v-2.412h.611v.263c0 .145.038.316.086.381.082.113.097.105.334-.164.357-.405.683-.541 1.296-.541h.497l-.038.19a2 2 0 00-.038.306c0 .101-.05.115-.424.115-.529 0-.7.063-1.032.385-.519.502-.526.534-.548 2.316l-.019 1.572h-.725zm14.287 2.383c0-.016.4-1.04.888-2.275a3762.76 3762.76 0 001.267-3.209l.379-.963.333.017.334.017.54 1.374 1.205 3.06c.365.926.683 1.757.705 1.846.04.16.04.162-.319.162h-.359l-.382-.972c-.21-.534-.419-1.001-.464-1.039-.056-.046-.478-.063-1.326-.051l-1.244.016-.106.214c-.058.117-.248.578-.421 1.022l-.315.81h-.357c-.197 0-.358-.013-.358-.03zm3.839-2.679c.051-.062-.043-.38-.393-1.328-.253-.685-.472-1.28-.486-1.322-.04-.12-.148-.09-.211.06-.288.688-.92 2.517-.893 2.585.047.123 1.88.128 1.983.005zm2.755-.742v-3.45h.733v6.9h-.733zm12.578 1.038v-2.412h.61v.263c0 .145.04.316.087.381.082.113.097.105.334-.164.356-.405.683-.541 1.296-.541h.497l-.038.19a2 2 0 00-.039.306c0 .101-.05.115-.423.115-.53 0-.7.063-1.032.385-.519.502-.526.534-.548 2.316l-.019 1.572h-.725zm-17.584-9.098v-3.51h.595l.038.24c.052.326.135.357.364.136.335-.323.67-.435 1.311-.436.485-.001.617.022.9.155.181.086.426.27.545.407.785.918.738 3.071-.086 3.895-.36.361-.718.487-1.38.487-.578 0-.932-.104-1.269-.375-.128-.103-.25-.17-.27-.15-.02.021-.03.628-.022 1.35l.016 1.312h-.742zm2.744.704c.492-.25.77-.772.838-1.57.066-.773-.131-1.442-.54-1.832-.266-.254-.466-.324-.925-.323-.718.003-1.181.382-1.327 1.086-.1.476-.047 1.62.088 1.935.127.297.43.627.679.738.282.126.908.109 1.187-.034zm-20.505.577c-1.29-.36-1.962-1.446-1.96-3.168.002-.784.106-1.3.376-1.848.35-.712 1.064-1.254 1.881-1.43.466-.1 1.842-.04 2.23.098.168.059.328.128.356.153.039.035-.138.486-.233.597-.009.01-.232-.055-.496-.144-.423-.142-.553-.158-1.092-.136-.71.028-1.003.136-1.449.533-1.049.932-1.112 3.213-.116 4.209.43.43.797.577 1.513.607.421.017.776-.007 1.105-.073.267-.054.503-.099.525-.099.022 0 .04.136.04.303 0 .296-.005.304-.23.373-.378.116-2.062.134-2.45.025zm4.331-.071c-.455-.24-.634-.578-.633-1.198 0-.498.094-.733.391-.984.405-.34 1.1-.515 2.074-.52.368-.002.61-.03.656-.077.112-.111.085-.658-.045-.946a.738.738 0 00-.377-.388c-.35-.18-1.016-.146-1.567.079l-.383.156-.09-.215c-.131-.315-.116-.357.17-.464.51-.19.838-.238 1.494-.215.806.029 1.115.166 1.36.602l.153.274.018 2 .018 2h-.245c-.233 0-.247-.012-.31-.243-.035-.132-.092-.258-.126-.279-.034-.02-.157.046-.274.149-.388.341-.554.396-1.28.42-.642.023-.685.016-1.004-.151zm1.737-.5c.501-.227.824-.747.824-1.328 0-.38-.075-.413-.842-.373-.76.04-1.118.154-1.397.444-.37.383-.3.928.157 1.233.268.179.894.19 1.258.025zm18.26.576c-.347-.128-.532-.283-.706-.589l-.153-.27-.018-1.968-.018-1.97h.669l.02 1.817c.019 1.784.022 1.82.163 2.047.2.322.52.472 1.009.472.486 0 .857-.149 1.12-.449.311-.354.34-.536.367-2.284l.025-1.602h.663v4.823h-.269c-.283 0-.342-.058-.342-.337 0-.227-.116-.242-.326-.043-.355.337-.56.404-1.292.424-.477.013-.741-.008-.912-.07zm4.942-.002a4.071 4.071 0 00-.351-.09c-.04-.003-.07-.675-.03-.675.008 0 .166.061.35.135.28.112.46.135 1.071.137.82.003.97-.049 1.191-.412.153-.252.15-.346-.02-.599-.156-.232-.54-.462-1.173-.702a8.723 8.723 0 01-.786-.35c-.576-.301-.796-.77-.65-1.38.092-.385.412-.69.863-.824.596-.177 2.064-.083 2.345.15.074.061.069.106-.035.31-.067.131-.142.238-.166.238-.025-.001-.219-.056-.432-.123-.456-.143-1.2-.161-1.497-.037-.244.102-.467.37-.467.56 0 .184.265.493.542.634.122.061.514.226.872.366 1.097.428 1.356.697 1.356 1.409 0 .58-.195.898-.724 1.178-.209.11-.368.131-1.1.146-.608.012-.942-.008-1.16-.07zM28.484 98.83V96.42h.298c.292 0 .3.004.338.211.022.117.065.227.096.246.03.02.181-.061.335-.178.347-.265.608-.34 1.192-.34.63 0 .88.084 1.23.411l.3.28.196-.202c.346-.356.723-.488 1.392-.489.517 0 .623.019.916.167.286.145.357.219.515.535l.183.366.02 1.908.02 1.908h-.738l-.017-1.858c-.017-1.775-.024-1.865-.146-2.03-.238-.32-.494-.447-.904-.446-.464.002-.817.155-1.044.452-.279.365-.334.759-.335 2.401v1.481h-.666l-.018-1.816c-.018-1.704-.027-1.83-.144-2.03-.205-.348-.47-.489-.924-.489-.478 0-.725.098-.98.387-.337.385-.383.669-.383 2.402v1.546h-.732zm-5.902-11.2c-.776-.393-1.12-1.246-1.042-2.583.06-1.028.442-1.727 1.11-2.038.256-.12.407-.144.888-.143.636 0 .984.11 1.293.405.09.086.192.138.229.115.043-.027.066-.46.066-1.289V80.85h.671v6.9h-.274c-.272 0-.274-.002-.313-.246-.022-.135-.066-.262-.098-.282-.032-.02-.145.047-.251.148-.348.33-.564.403-1.262.427-.617.022-.655.016-1.017-.167zm1.706-.452c.266-.111.632-.529.713-.814.111-.392.143-1.125.07-1.597-.148-.949-.575-1.355-1.424-1.352-.486.001-.799.167-1.066.565-.252.375-.345.84-.312 1.567.019.429.062.666.163.896.158.36.459.677.715.754.277.082.924.072 1.141-.02zm4.342.545c-.588-.184-1.084-.704-1.282-1.345-.135-.437-.178-1.296-.088-1.756.233-1.189.936-1.758 2.17-1.758.741 0 1.16.146 1.555.543.478.48.672 1.046.672 1.96 0 1.611-.76 2.45-2.214 2.439-.31-.003-.675-.04-.813-.083zm1.397-.545c.321-.135.696-.594.812-.994.146-.501.131-1.358-.03-1.79-.147-.39-.546-.826-.846-.925-.114-.037-.41-.058-.656-.046-.585.03-.89.228-1.158.752-.177.346-.184.39-.184 1.158.001.745.012.818.163 1.103.175.332.405.572.692.723.23.12.938.132 1.207.019zm5.54.524l-.398-.106-.018-.36c-.018-.348-.015-.357.122-.317.784.227 1.097.28 1.662.28.52-.001.664-.024.93-.148.43-.2.632-.501.632-.943 0-.609-.305-.89-1.465-1.345-1.42-.558-1.762-.933-1.768-1.934-.005-.77.365-1.273 1.118-1.517.59-.191 2.229-.08 2.577.174.106.077.106.092.002.363-.06.155-.115.282-.124.282-.008 0-.178-.057-.376-.128-.514-.183-1.459-.229-1.825-.09-.703.27-.89 1.088-.37 1.62.227.233.506.378 1.468.764 1.222.49 1.573.96 1.48 1.982-.058.634-.355 1.032-.992 1.327-.344.16-.422.171-1.312.186-.743.012-1.032-.007-1.344-.09zm5.834.017c-.344-.123-.531-.278-.706-.586l-.153-.27-.018-1.969-.018-1.969h.671l.018 1.817c.019 1.784.022 1.82.163 2.047.203.327.519.471 1.029.47.5-.002.825-.133 1.099-.445.313-.357.342-.537.368-2.286l.025-1.603h.663v4.83l-.29-.018c-.283-.018-.29-.024-.31-.233-.03-.325-.106-.355-.336-.132-.318.308-.738.438-1.4.435-.323-.002-.668-.04-.805-.088zm4.79-3.42v-3.45h.732v6.9h-.733zm-25.876-7.051c-.549-.13-1.134-.733-1.332-1.372-.135-.437-.178-1.295-.088-1.756.233-1.188.936-1.758 2.17-1.758.742 0 1.16.147 1.556.543.52.522.705 1.133.66 2.172-.027.603-.053.728-.222 1.081-.382.801-.995 1.155-1.98 1.144-.31-.004-.653-.028-.764-.054zm1.348-.572c.255-.107.68-.572.767-.838.21-.644.194-1.561-.035-2.077-.157-.351-.612-.768-.898-.822a3.19 3.19 0 00-.615-.016c-.525.033-.842.25-1.098.75-.177.347-.184.39-.183 1.158 0 .745.01.818.162 1.103.176.332.406.573.692.723.23.121.938.132 1.208.019zm7.298.545a2.636 2.636 0 01-1.214-.703c-.638-.637-.882-1.426-.832-2.69.042-1.086.274-1.69.877-2.284.576-.568 1.36-.83 2.483-.83.816 0 1.792.183 1.855.348.02.05-.021.209-.09.352l-.127.259-.448-.159c-.394-.14-.543-.158-1.241-.159-.742 0-.818.011-1.16.17-.923.431-1.437 1.342-1.434 2.54.002 1.148.5 2.021 1.393 2.44.328.154.395.162 1.295.162.806 0 .974-.016 1.115-.108l.165-.109v-.932c0-.644-.023-.956-.074-1.006-.048-.048-.3-.074-.732-.074h-.66v-.549h2.137v3.156l-.473.111c-.619.145-2.41.187-2.835.065zm8.895-.087c-.354-.208-.496-.421-.582-.874-.084-.441.017-.91.252-1.178.356-.405 1.177-.644 2.216-.644.356 0 .59-.027.636-.073.111-.111.085-.658-.046-.946a.738.738 0 00-.377-.389c-.35-.178-1.016-.145-1.567.08l-.383.156-.09-.215a1.182 1.182 0 01-.09-.297c0-.05.205-.146.518-.244.459-.143.594-.158 1.205-.138.84.028 1.143.16 1.39.602l.154.274.018 2.003.019 2.003-.26-.019c-.242-.017-.264-.034-.303-.223-.066-.33-.142-.357-.388-.142-.4.352-.553.401-1.315.423-.684.02-.71.016-1.007-.159zm1.77-.49c.501-.227.824-.748.824-1.328.001-.38-.075-.413-.84-.371-.785.043-1.167.163-1.413.444-.354.402-.28.93.172 1.231.267.179.893.19 1.258.025zm9.561.471c-.74-.386-1.011-.997-1.012-2.28 0-.963.133-1.44.53-1.89.411-.468.632-.552 1.454-.552.754 0 .946.056 1.292.38.09.084.193.134.23.111.043-.027.065-.46.065-1.288v-1.248h.672v6.899h-.274c-.273 0-.274-.001-.313-.246-.022-.135-.066-.261-.098-.281-.032-.02-.145.046-.252.147-.347.33-.563.403-1.261.429-.63.023-.649.02-1.033-.18zm1.722-.439c.266-.111.631-.529.712-.814.185-.648.127-1.798-.114-2.268-.235-.458-.647-.683-1.249-.681-.476.001-.791.17-1.057.566-.25.374-.344.84-.312 1.566.036.84.32 1.407.812 1.627.239.107.957.11 1.208.004zm4.232.48c-.489-.2-.754-.429-.987-.848-.331-.6-.426-1.495-.24-2.284.18-.761.54-1.24 1.136-1.507.346-.155.42-.166.993-.143.69.028.957.128 1.316.487.353.354.515.79.543 1.47l.025.596H56.31c-1.889 0-1.823-.021-1.706.539.087.415.32.766.671 1.013.233.164.317.185.826.207.409.018.675-.004.96-.08.729-.195.669-.208.669.138 0 .276-.016.311-.168.372-.34.135-.733.189-1.39.19-.57 0-.725-.023-1.031-.15zm1.978-2.81c.149-.178-.068-.894-.344-1.137-.473-.414-1.248-.4-1.722.03-.289.263-.556.965-.426 1.12.103.125 2.389.113 2.492-.013zm-45.975-.335v-3.236h1.248c1.405 0 1.713.046 2.178.324.26.156.362.267.508.553.161.316.183.42.183.888 0 .82-.251 1.257-.942 1.638-.118.065-.223.163-.234.219-.01.055.326.674.748 1.376.421.702.783 1.32.804 1.375.033.085-.02.099-.38.099h-.42l-.758-1.317c-.418-.724-.808-1.342-.867-1.373-.158-.085-1.174-.072-1.262.016-.053.052-.074.444-.074 1.374v1.3h-.732v-3.236zm2.52-.187c.272-.075.62-.365.76-.631.148-.28.137-.932-.02-1.2-.144-.246-.442-.462-.75-.543-.402-.106-1.58-.152-1.685-.066-.077.065-.093.275-.093 1.248 0 .854.021 1.193.077 1.251.088.093 1.316.05 1.712-.06zm3.097 1.011v-2.412h.733v4.824h-.733zm17.035 0v-2.412h.61v.264c0 .144.04.316.086.38.083.113.098.106.335-.164.356-.404.683-.54 1.296-.54h.497l-.039.19a2 2 0 00-.038.306c0 .1-.05.114-.423.114-.53 0-.7.063-1.032.385-.519.502-.527.535-.548 2.317l-.02 1.572h-.724zm8.914 0v-2.412h.595l.038.241c.053.328.136.357.37.13.305-.295.736-.432 1.368-.432.874 0 1.293.212 1.56.788.121.264.13.394.148 2.189l.018 1.908h-.678l-.001-1.633c-.001-.899-.027-1.741-.057-1.873-.068-.291-.222-.509-.49-.692-.29-.196-1.013-.193-1.406.006-.312.159-.63.617-.693 1-.021.127-.038.897-.039 1.711v1.48h-.733zm-25.894-3.488c-.046-.054-.083-.202-.083-.328 0-.307.112-.427.397-.427.297 0 .425.128.425.427 0 .133-.042.278-.096.332-.128.127-.537.125-.643-.004zm26.466-6.506c-.53-.847-1.012-1.588-1.073-1.649-.13-.13-.772-.156-.891-.037-.053.053-.073.498-.073 1.618v1.545h-1.771v-8.445l1.694.039c1.125.025 1.833.068 2.105.128 1.43.311 2.055 1.098 1.99 2.502-.042.879-.377 1.465-1.09 1.905-.2.124-.364.26-.364.303 0 .122 2.248 3.413 2.345 3.434.047.01.102-.008.122-.04.031-.05.46-1.266 1.941-5.504.135-.387.349-.991.475-1.344.127-.352.295-.826.375-1.053l.144-.412h2.152l.097.26c.185.496.921 2.581 2.303 6.517.194.554.397 1.128.45 1.275.166.454.202.435-.815.435-.55 0-.927-.025-.95-.062a4.147 4.147 0 01-.158-.473l-.245-.839c-.198-.68-.09-.641-1.772-.641-1.443 0-1.455.001-1.54.137-.046.076-.204.543-.35 1.038l-.268.9h-3.87zm8.078-2.04c.02-.054-.107-.555-.283-1.114a123.04 123.04 0 01-.49-1.586c-.173-.584-.266-.753-.357-.649-.096.11-1.003 3.255-.967 3.35.032.083.186.097 1.048.097.871 0 1.017-.014 1.05-.098zm-8.68-1.217c.305-.084.608-.333.755-.62.038-.073.069-.296.069-.495 0-.716-.403-1.027-1.445-1.118-.468-.04-.67-.037-.73.013-.116.096-.123 2.19-.008 2.304.093.093.896.043 1.36-.084zm-31.964.521v-4.213h4.824v1.404h-1.484c-1.072 0-1.504.02-1.557.074-.103.102-.103 2.07 0 2.173.053.053.457.074 1.435.074h1.362v1.343h-1.362c-.978 0-1.382.02-1.435.073-.053.053-.073.512-.073 1.68v1.605h-1.71zm6.594 0v-4.213h4.824v1.404H20.68c-1.049 0-1.474.02-1.527.074-.05.05-.073.346-.073.934 0 .588.023.884.073.934.053.053.458.073 1.435.073h1.362v1.343h-1.362c-.977 0-1.382.021-1.435.074-.102.102-.102 2.01 0 2.112.053.053.478.074 1.527.074h1.453v1.404H17.31zm6.656 0v-4.213l1.236.001c2.211.002 3.009.123 3.913.596.843.44 1.508 1.355 1.72 2.364.12.574.117 1.86-.005 2.46-.262 1.294-1.138 2.311-2.334 2.713-.737.247-1.179.292-2.887.292h-1.643v-4.213zm3.588 2.615c.859-.263 1.42-1.023 1.555-2.107.132-1.058-.099-2.03-.613-2.577-.438-.466-.84-.623-1.79-.7-.623-.05-.796-.046-.874.018-.084.07-.096.393-.096 2.746 0 2.052.018 2.685.077 2.745.107.109 1.244.027 1.74-.125zm5.204-2.615v-4.213h4.823v1.404h-1.453c-1.049 0-1.473.02-1.526.074-.05.05-.074.346-.074.934 0 .588.024.884.074.934.052.053.457.073 1.434.073h1.362v1.343h-1.362c-.977 0-1.382.021-1.434.074-.103.102-.103 2.01 0 2.112.053.053.477.074 1.526.074h1.453v1.404h-4.823zm22.774 0v-4.213h1.77v3.438c0 2.592.018 3.455.074 3.51.053.054.518.074 1.71.074h1.636v1.404h-5.19zm-36.495-6.259a6.063 6.063 0 01-.733-.226l-.352-.14-.017-.809c-.014-.658-.002-.809.067-.809.047 0 .288.084.535.186 1.718.708 3.17.511 3.17-.43 0-.471-.369-.805-1.46-1.325-1.123-.535-1.536-.836-1.873-1.37-.552-.873-.377-2.324.356-2.952a2.867 2.867 0 011.22-.585c.6-.116 1.606-.077 2.245.087.614.159 1.16.37 1.16.45.001.124-.51 1.3-.564 1.3-.034 0-.313-.088-.62-.195-.755-.263-1.54-.31-1.921-.116-.437.223-.607.654-.409 1.037.156.302.518.555 1.416.993 1.37.668 1.826 1.067 2.07 1.813.159.483.102 1.396-.112 1.816-.301.592-.71.935-1.422 1.192-.303.11-.525.134-1.369.15-.714.014-1.118-.005-1.387-.067zm25.915-.003c-1.135-.275-1.922-1.06-2.152-2.147-.07-.326-.088-1.037-.089-3.36l-.001-2.946h1.709l.001 2.519c0 1.385.027 2.748.06 3.03.075.66.29 1.062.705 1.32.28.175.324.183.97.183.543 0 .718-.022.89-.114.464-.247.677-.562.788-1.166.042-.225.067-1.372.067-3.066V47.39h1.709v3.038c0 2.404-.019 3.104-.086 3.358-.282 1.056-1.003 1.739-2.148 2.032-.572.146-1.867.16-2.423.025zm16.09-.024c-.589-.159-.895-.301-1.288-.599-.59-.447-1.007-1.11-1.243-1.978-.187-.686-.202-2.382-.029-3.122.335-1.425 1.198-2.32 2.575-2.67.616-.157 1.801-.173 2.474-.034 1.049.217 1.895.852 2.327 1.746.384.792.45 1.157.45 2.472 0 1.03-.016 1.214-.14 1.646-.376 1.296-1.088 2.073-2.272 2.478-.583.2-2.212.234-2.854.06zm2.066-1.445c.176-.058.433-.215.61-.375.566-.508.787-1.175.787-2.365 0-1.181-.215-1.836-.773-2.358-.414-.387-.784-.503-1.506-.47-.474.02-.607.051-.885.203-.793.433-1.167 1.274-1.167 2.625 0 .712.118 1.334.337 1.782.197.403.685.847 1.057.961.39.12 1.167.119 1.54-.003zm-58.253-2.77V47.39h1.771v8.426H4.855zm3.908 0V47.39h2.229l1.793 3.086c.986 1.698 1.824 3.076 1.86 3.064.05-.017.063-.883.048-3.086l-.02-3.064h1.6v8.429l-1.166-.017-1.165-.016-1.758-3.053c-.968-1.68-1.795-3.053-1.84-3.053-.065 0-.077.56-.062 3.068l.018 3.068H8.763zm17.767.805c0-2.568-.018-3.425-.073-3.48-.052-.051-.396-.073-1.16-.073H24.21V47.39h6.411v1.466h-1.087c-.764 0-1.109.021-1.16.073-.055.055-.073.912-.073 3.48v3.407H26.53zm5.434-.806V47.39h1.771v8.426h-1.771zm5.373.806c0-2.568-.018-3.425-.073-3.48-.052-.051-.397-.073-1.16-.073h-1.087V47.39h6.411v1.466H40.34c-.764 0-1.109.021-1.16.073-.055.055-.073.912-.073 3.48v3.407h-1.771zm15.936 0c0-2.568-.018-3.425-.074-3.48-.051-.051-.396-.073-1.16-.073h-1.086V47.39h6.41v1.466h-1.086c-.764 0-1.109.021-1.16.073-.056.055-.074.912-.074 3.48v3.407h-1.77zM24.244 9.713c-1.948-.264-3.564-1.74-4.043-3.696-.149-.607-.135-1.742.029-2.352A4.95 4.95 0 0123.099.408c.919-.374 2.31-.44 3.217-.152 1.608.509 2.82 1.74 3.279 3.326.119.414.14.625.137 1.374-.003.835-.015.918-.202 1.466-.666 1.943-2.296 3.188-4.343 3.316a5.85 5.85 0 01-.943-.025z"/>
      <path d="M49.964 113.554c-.68-.19-.993-.583-.99-1.236.003-.47.14-.719.546-.991.356-.239.38-.285.241-.44-.243-.267-.168-.836.147-1.122.173-.157.162-.248-.05-.399-.623-.444-.668-1.785-.081-2.4.088-.092.313-.225.5-.295.323-.12.41-.125 1.82-.083l1.48.044v.4l-.397.043c-.219.024-.41.063-.425.087-.015.025.03.193.099.375.18.469.136 1.047-.11 1.445-.278.452-.677.638-1.465.682-.587.032-.635.045-.813.216-.222.212-.283.398-.189.575.117.219.291.258 1.336.306.864.039 1.057.066 1.272.177.492.254.695.743.575 1.39-.107.58-.377.872-1.05 1.14-.273.107-.483.132-1.244.148-.624.013-1.007-.007-1.202-.062zm2.27-.683c.72-.39.797-1.085.156-1.416-.276-.143-1.945-.144-2.209-.002-.767.413-.717 1.318.087 1.577.091.03.495.046.898.037.68-.015.757-.029 1.067-.196zm-.42-3.83a1.29 1.29 0 00.349-.412c.244-.473.103-1.117-.314-1.428-.143-.106-.26-.128-.683-.128-.548 0-.71.069-.964.409-.242.323-.211 1.012.059 1.332.217.259.468.355.942.36.322.004.445-.022.61-.132zm-35.029 2.372c-.588-.184-1.084-.704-1.282-1.346-.135-.437-.178-1.295-.088-1.756.233-1.188.936-1.757 2.17-1.757.741 0 1.16.146 1.555.543.515.516.709 1.148.66 2.152-.04.825-.194 1.238-.62 1.672-.427.435-.825.58-1.582.574-.31-.002-.675-.039-.813-.082zm1.397-.546c.255-.107.681-.572.768-.838.21-.644.194-1.56-.036-2.076-.142-.32-.455-.642-.74-.763-.318-.133-.935-.111-1.268.046-.588.276-.848.904-.804 1.939.023.54.054.696.185.95.17.331.399.572.688.724.23.12.938.132 1.207.018zm7.428.491a.914.914 0 01-.422-.44c-.152-.296-.154-.323-.174-1.981-.013-1.04-.045-1.71-.084-1.757-.035-.042-.184-.077-.33-.077-.247 0-.268-.012-.268-.156 0-.13.055-.18.333-.303l.334-.147.13-.445c.07-.244.14-.479.152-.52.014-.043.12-.077.24-.077h.215v.507c0 .312.028.535.074.58.047.047.294.073.702.073h.629v.488h-.63c-.407 0-.654.026-.701.074-.054.053-.074.5-.074 1.633 0 1.439.01 1.575.12 1.755.201.33.368.401.887.375l.459-.023v.254c0 .307-.048.327-.8.328-.432 0-.572-.024-.792-.141zm3.753.058c-.594-.193-1.085-.709-1.282-1.349a4.583 4.583 0 01-.13-.84c-.076-1.198.312-2.063 1.109-2.476.266-.138.403-.164.98-.184.844-.03 1.247.097 1.678.53.515.516.708 1.148.66 2.152-.051 1.034-.404 1.687-1.109 2.052-.274.142-.396.164-.984.18-.44.01-.758-.012-.922-.065zm1.397-.549c.108-.045.312-.208.453-.361.333-.362.462-.796.46-1.537-.004-.734-.153-1.14-.559-1.52-.335-.313-.537-.373-1.134-.334-.526.033-.843.25-1.099.75-.177.346-.184.39-.183 1.158 0 .744.011.818.162 1.103.176.332.406.572.692.723.23.12.939.132 1.208.018zm14.81.551c-.992-.371-1.457-1.132-1.455-2.379.002-1.147.44-1.977 1.227-2.33.346-.156.42-.166.993-.143.69.028.96.128 1.314.487.376.38.511.74.543 1.44l.029.625h-1.619c-1.89 0-1.823-.02-1.706.54.087.414.32.765.671 1.013.233.164.317.184.826.207.41.018.675-.005.96-.08.728-.196.669-.208.669.136 0 .299-.004.304-.26.41-.351.147-1.863.197-2.192.074zm1.842-2.88c.148-.179-.07-.895-.345-1.137-.49-.43-1.343-.392-1.77.078-.286.314-.505.92-.384 1.065.108.13 2.39.125 2.499-.006zm12.064 2.814c-.491-.207-.755-.435-.987-.853-.331-.6-.426-1.494-.24-2.283.18-.762.54-1.24 1.136-1.507.346-.156.42-.166.993-.143.69.028.957.127 1.316.487.353.354.515.79.543 1.47l.025.595h-1.617c-1.889 0-1.823-.02-1.706.54.087.414.32.765.671 1.013.233.164.317.184.826.207.409.018.675-.005.96-.08.729-.196.669-.208.669.14v.306l-.29.105c-.203.074-.537.113-1.115.13-.77.023-.847.015-1.184-.127zm1.978-2.814c.149-.179-.068-.895-.344-1.137-.49-.43-1.343-.392-1.77.078-.286.314-.505.92-.384 1.065.108.13 2.39.125 2.498-.006zm-51.348-.335v-3.236h1.208c1.337 0 1.735.064 2.21.354.919.564.964 2.366.076 3.044-.464.353-.863.464-1.785.495-.453.015-.858.055-.9.09-.057.045-.077.378-.077 1.275v1.213h-.732zm2.44-.041c.47-.13.816-.483.911-.93.168-.785-.223-1.424-.97-1.587-.51-.111-1.454-.153-1.556-.069-.077.064-.093.286-.093 1.34 0 .928.02 1.282.077 1.339.098.1 1.155.039 1.632-.093zm8.611.865v-2.412h.611v.263c0 .145.038.316.086.381.082.113.097.105.334-.164.357-.405.683-.541 1.296-.541h.497l-.038.19a2 2 0 00-.038.306c0 .101-.05.115-.424.115-.529 0-.7.063-1.032.385-.519.502-.526.534-.548 2.316l-.019 1.572h-.725zm14.287 2.383c0-.016.4-1.04.888-2.275a3762.76 3762.76 0 001.267-3.209l.379-.963.333.017.334.017.54 1.374 1.205 3.06c.365.926.683 1.757.705 1.846.04.16.04.162-.319.162h-.359l-.382-.972c-.21-.534-.419-1.001-.464-1.039-.056-.046-.478-.063-1.326-.051l-1.244.016-.106.214c-.058.117-.248.578-.421 1.022l-.315.81h-.357c-.197 0-.358-.013-.358-.03zm3.839-2.679c.051-.062-.043-.38-.393-1.328-.253-.685-.472-1.28-.486-1.322-.04-.12-.148-.09-.211.06-.288.688-.92 2.517-.893 2.585.047.123 1.88.128 1.983.005zm2.755-.742v-3.45h.733v6.9h-.733zm12.578 1.038v-2.412h.61v.263c0 .145.04.316.087.381.082.113.097.105.334-.164.356-.405.683-.541 1.296-.541h.497l-.038.19a2 2 0 00-.039.306c0 .101-.05.115-.423.115-.53 0-.7.063-1.032.385-.519.502-.526.534-.548 2.316l-.019 1.572h-.725zm-17.584-9.098v-3.51h.595l.038.24c.052.326.135.357.364.136.335-.323.67-.435 1.311-.436.485-.001.617.022.9.155.181.086.426.27.545.407.785.918.738 3.071-.086 3.895-.36.361-.718.487-1.38.487-.578 0-.932-.104-1.269-.375-.128-.103-.25-.17-.27-.15-.02.021-.03.628-.022 1.35l.016 1.312h-.742zm2.744.704c.492-.25.77-.772.838-1.57.066-.773-.131-1.442-.54-1.832-.266-.254-.466-.324-.925-.323-.718.003-1.181.382-1.327 1.086-.1.476-.047 1.62.088 1.935.127.297.43.627.679.738.282.126.908.109 1.187-.034zm-20.505.577c-1.29-.36-1.962-1.446-1.96-3.168.002-.784.106-1.3.376-1.848.35-.712 1.064-1.254 1.881-1.43.466-.1 1.842-.04 2.23.098.168.059.328.128.356.153.039.035-.138.486-.233.597-.009.01-.232-.055-.496-.144-.423-.142-.553-.158-1.092-.136-.71.028-1.003.136-1.449.533-1.049.932-1.112 3.213-.116 4.209.43.43.797.577 1.513.607.421.017.776-.007 1.105-.073.267-.054.503-.099.525-.099.022 0 .04.136.04.303 0 .296-.005.304-.23.373-.378.116-2.062.134-2.45.025zm4.331-.071c-.455-.24-.634-.578-.633-1.198 0-.498.094-.733.391-.984.405-.34 1.1-.515 2.074-.52.368-.002.61-.03.656-.077.112-.111.085-.658-.045-.946a.738.738 0 00-.377-.388c-.35-.18-1.016-.146-1.567.079l-.383.156-.09-.215c-.131-.315-.116-.357.17-.464.51-.19.838-.238 1.494-.215.806.029 1.115.166 1.36.602l.153.274.018 2 .018 2h-.245c-.233 0-.247-.012-.31-.243-.035-.132-.092-.258-.126-.279-.034-.02-.157.046-.274.149-.388.341-.554.396-1.28.42-.642.023-.685.016-1.004-.151zm1.737-.5c.501-.227.824-.747.824-1.328 0-.38-.075-.413-.842-.373-.76.04-1.118.154-1.397.444-.37.383-.3.928.157 1.233.268.179.894.19 1.258.025zm18.26.576c-.347-.128-.532-.283-.706-.589l-.153-.27-.018-1.968-.018-1.97h.669l.02 1.817c.019 1.784.022 1.82.163 2.047.2.322.52.472 1.009.472.486 0 .857-.149 1.12-.449.311-.354.34-.536.367-2.284l.025-1.602h.663v4.823h-.269c-.283 0-.342-.058-.342-.337 0-.227-.116-.242-.326-.043-.355.337-.56.404-1.292.424-.477.013-.741-.008-.912-.07zm4.942-.002a4.071 4.071 0 00-.351-.09c-.04-.003-.07-.675-.03-.675.008 0 .166.061.35.135.28.112.46.135 1.071.137.82.003.97-.049 1.191-.412.153-.252.15-.346-.02-.599-.156-.232-.54-.462-1.173-.702a8.723 8.723 0 01-.786-.35c-.576-.301-.796-.77-.65-1.38.092-.385.412-.69.863-.824.596-.177 2.064-.083 2.345.15.074.061.069.106-.035.31-.067.131-.142.238-.166.238-.025-.001-.219-.056-.432-.123-.456-.143-1.2-.161-1.497-.037-.244.102-.467.37-.467.56 0 .184.265.493.542.634.122.061.514.226.872.366 1.097.428 1.356.697 1.356 1.409 0 .58-.195.898-.724 1.178-.209.11-.368.131-1.1.146-.608.012-.942-.008-1.16-.07zM28.484 98.83V96.42h.298c.292 0 .3.004.338.211.022.117.065.227.096.246.03.02.181-.061.335-.178.347-.265.608-.34 1.192-.34.63 0 .88.084 1.23.411l.3.28.196-.202c.346-.356.723-.488 1.392-.489.517 0 .623.019.916.167.286.145.357.219.515.535l.183.366.02 1.908.02 1.908h-.738l-.017-1.858c-.017-1.775-.024-1.865-.146-2.03-.238-.32-.494-.447-.904-.446-.464.002-.817.155-1.044.452-.279.365-.334.759-.335 2.401v1.481h-.666l-.018-1.816c-.018-1.704-.027-1.83-.144-2.03-.205-.348-.47-.489-.924-.489-.478 0-.725.098-.98.387-.337.385-.383.669-.383 2.402v1.546h-.732zm-5.902-11.2c-.776-.393-1.12-1.246-1.042-2.583.06-1.028.442-1.727 1.11-2.038.256-.12.407-.144.888-.143.636 0 .984.11 1.293.405.09.086.192.138.229.115.043-.027.066-.46.066-1.289V80.85h.671v6.9h-.274c-.272 0-.274-.002-.313-.246-.022-.135-.066-.262-.098-.282-.032-.02-.145.047-.251.148-.348.33-.564.403-1.262.427-.617.022-.655.016-1.017-.167zm1.706-.452c.266-.111.632-.529.713-.814.111-.392.143-1.125.07-1.597-.148-.949-.575-1.355-1.424-1.352-.486.001-.799.167-1.066.565-.252.375-.345.84-.312 1.567.019.429.062.666.163.896.158.36.459.677.715.754.277.082.924.072 1.141-.02zm4.342.545c-.588-.184-1.084-.704-1.282-1.345-.135-.437-.178-1.296-.088-1.756.233-1.189.936-1.758 2.17-1.758.741 0 1.16.146 1.555.543.478.48.672 1.046.672 1.96 0 1.611-.76 2.45-2.214 2.439-.31-.003-.675-.04-.813-.083zm1.397-.545c.321-.135.696-.594.812-.994.146-.501.131-1.358-.03-1.79-.147-.39-.546-.826-.846-.925-.114-.037-.41-.058-.656-.046-.585.03-.89.228-1.158.752-.177.346-.184.39-.184 1.158.001.745.012.818.163 1.103.175.332.405.572.692.723.23.12.938.132 1.207.019zm5.54.524l-.398-.106-.018-.36c-.018-.348-.015-.357.122-.317.784.227 1.097.28 1.662.28.52-.001.664-.024.93-.148.43-.2.632-.501.632-.943 0-.609-.305-.89-1.465-1.345-1.42-.558-1.762-.933-1.768-1.934-.005-.77.365-1.273 1.118-1.517.59-.191 2.229-.08 2.577.174.106.077.106.092.002.363-.06.155-.115.282-.124.282-.008 0-.178-.057-.376-.128-.514-.183-1.459-.229-1.825-.09-.703.27-.89 1.088-.37 1.62.227.233.506.378 1.468.764 1.222.49 1.573.96 1.48 1.982-.058.634-.355 1.032-.992 1.327-.344.16-.422.171-1.312.186-.743.012-1.032-.007-1.344-.09zm5.834.017c-.344-.123-.531-.278-.706-.586l-.153-.27-.018-1.969-.018-1.969h.671l.018 1.817c.019 1.784.022 1.82.163 2.047.203.327.519.471 1.029.47.5-.002.825-.133 1.099-.445.313-.357.342-.537.368-2.286l.025-1.603h.663v4.83l-.29-.018c-.283-.018-.29-.024-.31-.233-.03-.325-.106-.355-.336-.132-.318.308-.738.438-1.4.435-.323-.002-.668-.04-.805-.088zm4.79-3.42v-3.45h.732v6.9h-.733zm-25.876-7.051c-.549-.13-1.134-.733-1.332-1.372-.135-.437-.178-1.295-.088-1.756.233-1.188.936-1.758 2.17-1.758.742 0 1.16.147 1.556.543.52.522.705 1.133.66 2.172-.027.603-.053.728-.222 1.081-.382.801-.995 1.155-1.98 1.144-.31-.004-.653-.028-.764-.054zm1.348-.572c.255-.107.68-.572.767-.838.21-.644.194-1.561-.035-2.077-.157-.351-.612-.768-.898-.822a3.19 3.19 0 00-.615-.016c-.525.033-.842.25-1.098.75-.177.347-.184.39-.183 1.158 0 .745.01.818.162 1.103.176.332.406.573.692.723.23.121.938.132 1.208.019zm7.298.545a2.636 2.636 0 01-1.214-.703c-.638-.637-.882-1.426-.832-2.69.042-1.086.274-1.69.877-2.284.576-.568 1.36-.83 2.483-.83.816 0 1.792.183 1.855.348.02.05-.021.209-.09.352l-.127.259-.448-.159c-.394-.14-.543-.158-1.241-.159-.742 0-.818.011-1.16.17-.923.431-1.437 1.342-1.434 2.54.002 1.148.5 2.021 1.393 2.44.328.154.395.162 1.295.162.806 0 .974-.016 1.115-.108l.165-.109v-.932c0-.644-.023-.956-.074-1.006-.048-.048-.3-.074-.732-.074h-.66v-.549h2.137v3.156l-.473.111c-.619.145-2.41.187-2.835.065zm8.895-.087c-.354-.208-.496-.421-.582-.874-.084-.441.017-.91.252-1.178.356-.405 1.177-.644 2.216-.644.356 0 .59-.027.636-.073.111-.111.085-.658-.046-.946a.738.738 0 00-.377-.389c-.35-.178-1.016-.145-1.567.08l-.383.156-.09-.215a1.182 1.182 0 01-.09-.297c0-.05.205-.146.518-.244.459-.143.594-.158 1.205-.138.84.028 1.143.16 1.39.602l.154.274.018 2.003.019 2.003-.26-.019c-.242-.017-.264-.034-.303-.223-.066-.33-.142-.357-.388-.142-.4.352-.553.401-1.315.423-.684.02-.71.016-1.007-.159zm1.77-.49c.501-.227.824-.748.824-1.328.001-.38-.075-.413-.84-.371-.785.043-1.167.163-1.413.444-.354.402-.28.93.172 1.231.267.179.893.19 1.258.025zm9.561.471c-.74-.386-1.011-.997-1.012-2.28 0-.963.133-1.44.53-1.89.411-.468.632-.552 1.454-.552.754 0 .946.056 1.292.38.09.084.193.134.23.111.043-.027.065-.46.065-1.288v-1.248h.672v6.899h-.274c-.273 0-.274-.001-.313-.246-.022-.135-.066-.261-.098-.281-.032-.02-.145.046-.252.147-.347.33-.563.403-1.261.429-.63.023-.649.02-1.033-.18zm1.722-.439c.266-.111.631-.529.712-.814.185-.648.127-1.798-.114-2.268-.235-.458-.647-.683-1.249-.681-.476.001-.791.17-1.057.566-.25.374-.344.84-.312 1.566.036.84.32 1.407.812 1.627.239.107.957.11 1.208.004zm4.232.48c-.489-.2-.754-.429-.987-.848-.331-.6-.426-1.495-.24-2.284.18-.761.54-1.24 1.136-1.507.346-.155.42-.166.993-.143.69.028.957.128 1.316.487.353.354.515.79.543 1.47l.025.596H56.31c-1.889 0-1.823-.021-1.706.539.087.415.32.766.671 1.013.233.164.317.185.826.207.409.018.675-.004.96-.08.729-.195.669-.208.669.138 0 .276-.016.311-.168.372-.34.135-.733.189-1.39.19-.57 0-.725-.023-1.031-.15zm1.978-2.81c.149-.178-.068-.894-.344-1.137-.473-.414-1.248-.4-1.722.03-.289.263-.556.965-.426 1.12.103.125 2.389.113 2.492-.013zm-45.975-.335v-3.236h1.248c1.405 0 1.713.046 2.178.324.26.156.362.267.508.553.161.316.183.42.183.888 0 .82-.251 1.257-.942 1.638-.118.065-.223.163-.234.219-.01.055.326.674.748 1.376.421.702.783 1.32.804 1.375.033.085-.02.099-.38.099h-.42l-.758-1.317c-.418-.724-.808-1.342-.867-1.373-.158-.085-1.174-.072-1.262.016-.053.052-.074.444-.074 1.374v1.3h-.732v-3.236zm2.52-.187c.272-.075.62-.365.76-.631.148-.28.137-.932-.02-1.2-.144-.246-.442-.462-.75-.543-.402-.106-1.58-.152-1.685-.066-.077.065-.093.275-.093 1.248 0 .854.021 1.193.077 1.251.088.093 1.316.05 1.712-.06zm3.097 1.011v-2.412h.733v4.824h-.733zm17.035 0v-2.412h.61v.264c0 .144.04.316.086.38.083.113.098.106.335-.164.356-.404.683-.54 1.296-.54h.497l-.039.19a2 2 0 00-.038.306c0 .1-.05.114-.423.114-.53 0-.7.063-1.032.385-.519.502-.527.535-.548 2.317l-.02 1.572h-.724zm8.914 0v-2.412h.595l.038.241c.053.328.136.357.37.13.305-.295.736-.432 1.368-.432.874 0 1.293.212 1.56.788.121.264.13.394.148 2.189l.018 1.908h-.678l-.001-1.633c-.001-.899-.027-1.741-.057-1.873-.068-.291-.222-.509-.49-.692-.29-.196-1.013-.193-1.406.006-.312.159-.63.617-.693 1-.021.127-.038.897-.039 1.711v1.48h-.733zm-25.894-3.488c-.046-.054-.083-.202-.083-.328 0-.307.112-.427.397-.427.297 0 .425.128.425.427 0 .133-.042.278-.096.332-.128.127-.537.125-.643-.004zm26.466-6.506c-.53-.847-1.012-1.588-1.073-1.649-.13-.13-.772-.156-.891-.037-.053.053-.073.498-.073 1.618v1.545h-1.771v-8.445l1.694.039c1.125.025 1.833.068 2.105.128 1.43.311 2.055 1.098 1.99 2.502-.042.879-.377 1.465-1.09 1.905-.2.124-.364.26-.364.303 0 .122 2.248 3.413 2.345 3.434.047.01.102-.008.122-.04.031-.05.46-1.266 1.941-5.504.135-.387.349-.991.475-1.344.127-.352.295-.826.375-1.053l.144-.412h2.152l.097.26c.185.496.921 2.581 2.303 6.517.194.554.397 1.128.45 1.275.166.454.202.435-.815.435-.55 0-.927-.025-.95-.062a4.147 4.147 0 01-.158-.473l-.245-.839c-.198-.68-.09-.641-1.772-.641-1.443 0-1.455.001-1.54.137-.046.076-.204.543-.35 1.038l-.268.9h-3.87zm8.078-2.04c.02-.054-.107-.555-.283-1.114a123.04 123.04 0 01-.49-1.586c-.173-.584-.266-.753-.357-.649-.096.11-1.003 3.255-.967 3.35.032.083.186.097 1.048.097.871 0 1.017-.014 1.05-.098zm-8.68-1.217c.305-.084.608-.333.755-.62.038-.073.069-.296.069-.495 0-.716-.403-1.027-1.445-1.118-.468-.04-.67-.037-.73.013-.116.096-.123 2.19-.008 2.304.093.093.896.043 1.36-.084zm-31.964.521v-4.213h4.824v1.404h-1.484c-1.072 0-1.504.02-1.557.074-.103.102-.103 2.07 0 2.173.053.053.457.074 1.435.074h1.362v1.343h-1.362c-.978 0-1.382.02-1.435.073-.053.053-.073.512-.073 1.68v1.605h-1.71zm6.594 0v-4.213h4.824v1.404H20.68c-1.049 0-1.474.02-1.527.074-.05.05-.073.346-.073.934 0 .588.023.884.073.934.053.053.458.073 1.435.073h1.362v1.343h-1.362c-.977 0-1.382.021-1.435.074-.102.102-.102 2.01 0 2.112.053.053.478.074 1.527.074h1.453v1.404H17.31zm6.656 0v-4.213l1.236.001c2.211.002 3.009.123 3.913.596.843.44 1.508 1.355 1.72 2.364.12.574.117 1.86-.005 2.46-.262 1.294-1.138 2.311-2.334 2.713-.737.247-1.179.292-2.887.292h-1.643v-4.213zm3.588 2.615c.859-.263 1.42-1.023 1.555-2.107.132-1.058-.099-2.03-.613-2.577-.438-.466-.84-.623-1.79-.7-.623-.05-.796-.046-.874.018-.084.07-.096.393-.096 2.746 0 2.052.018 2.685.077 2.745.107.109 1.244.027 1.74-.125zm5.204-2.615v-4.213h4.823v1.404h-1.453c-1.049 0-1.473.02-1.526.074-.05.05-.074.346-.074.934 0 .588.024.884.074.934.052.053.457.073 1.434.073h1.362v1.343h-1.362c-.977 0-1.382.021-1.434.074-.103.102-.103 2.01 0 2.112.053.053.477.074 1.526.074h1.453v1.404h-4.823zm22.774 0v-4.213h1.77v3.438c0 2.592.018 3.455.074 3.51.053.054.518.074 1.71.074h1.636v1.404h-5.19zm-36.495-6.259a6.063 6.063 0 01-.733-.226l-.352-.14-.017-.809c-.014-.658-.002-.809.067-.809.047 0 .288.084.535.186 1.718.708 3.17.511 3.17-.43 0-.471-.369-.805-1.46-1.325-1.123-.535-1.536-.836-1.873-1.37-.552-.873-.377-2.324.356-2.952a2.867 2.867 0 011.22-.585c.6-.116 1.606-.077 2.245.087.614.159 1.16.37 1.16.45.001.124-.51 1.3-.564 1.3-.034 0-.313-.088-.62-.195-.755-.263-1.54-.31-1.921-.116-.437.223-.607.654-.409 1.037.156.302.518.555 1.416.993 1.37.668 1.826 1.067 2.07 1.813.159.483.102 1.396-.112 1.816-.301.592-.71.935-1.422 1.192-.303.11-.525.134-1.369.15-.714.014-1.118-.005-1.387-.067zm25.915-.003c-1.135-.275-1.922-1.06-2.152-2.147-.07-.326-.088-1.037-.089-3.36l-.001-2.946h1.709l.001 2.519c0 1.385.027 2.748.06 3.03.075.66.29 1.062.705 1.32.28.175.324.183.97.183.543 0 .718-.022.89-.114.464-.247.677-.562.788-1.166.042-.225.067-1.372.067-3.066V47.39h1.709v3.038c0 2.404-.019 3.104-.086 3.358-.282 1.056-1.003 1.739-2.148 2.032-.572.146-1.867.16-2.423.025zm16.09-.024c-.589-.159-.895-.301-1.288-.599-.59-.447-1.007-1.11-1.243-1.978-.187-.686-.202-2.382-.029-3.122.335-1.425 1.198-2.32 2.575-2.67.616-.157 1.801-.173 2.474-.034 1.049.217 1.895.852 2.327 1.746.384.792.45 1.157.45 2.472 0 1.03-.016 1.214-.14 1.646-.376 1.296-1.088 2.073-2.272 2.478-.583.2-2.212.234-2.854.06zm2.066-1.445c.176-.058.433-.215.61-.375.566-.508.787-1.175.787-2.365 0-1.181-.215-1.836-.773-2.358-.414-.387-.784-.503-1.506-.47-.474.02-.607.051-.885.203-.793.433-1.167 1.274-1.167 2.625 0 .712.118 1.334.337 1.782.197.403.685.847 1.057.961.39.12 1.167.119 1.54-.003zm-58.253-2.77V47.39h1.771v8.426H4.855zm3.908 0V47.39h2.229l1.793 3.086c.986 1.698 1.824 3.076 1.86 3.064.05-.017.063-.883.048-3.086l-.02-3.064h1.6v8.429l-1.166-.017-1.165-.016-1.758-3.053c-.968-1.68-1.795-3.053-1.84-3.053-.065 0-.077.56-.062 3.068l.018 3.068H8.763zm17.767.805c0-2.568-.018-3.425-.073-3.48-.052-.051-.396-.073-1.16-.073H24.21V47.39h6.411v1.466h-1.087c-.764 0-1.109.021-1.16.073-.055.055-.073.912-.073 3.48v3.407H26.53zm5.434-.806V47.39h1.771v8.426h-1.771zm5.373.806c0-2.568-.018-3.425-.073-3.48-.052-.051-.397-.073-1.16-.073h-1.087V47.39h6.411v1.466H40.34c-.764 0-1.109.021-1.16.073-.055.055-.073.912-.073 3.48v3.407h-1.771zm15.936 0c0-2.568-.018-3.425-.074-3.48-.051-.051-.396-.073-1.16-.073h-1.086V47.39h6.41v1.466h-1.086c-.764 0-1.109.021-1.16.073-.056.055-.074.912-.074 3.48v3.407h-1.77z"/>
    </g>
  </g>
</svg>
